<svg width="389" height="137" viewBox="0 0 389 137" fill="none" xmlns="http://www.w3.org/2000/svg">
<path fill-rule="evenodd" clip-rule="evenodd" d="M41.6095 20.4535V135.07H64.8333V20.4535H106.443V0H0V20.4535H41.6095ZM0.967662 19.4887H42.5771V134.106H63.8657V19.4887H105.475V0.964789H0.967662V19.4887ZM146.132 0.964789H124.844V134.106H146.132V0.964789ZM176.948 124C184.205 131.859 194.499 135.842 207.972 135.842C221.703 135.842 232.328 131.793 239.976 123.794C247.613 115.678 251.517 103.418 251.517 86.831V0.964789H230.228V86.831C230.228 97.0655 228.289 104.627 224.185 109.268C220.233 113.884 214.787 116.161 207.972 116.161C201.103 116.161 195.708 113.955 191.94 109.446C188.336 105.135 186.321 98.8387 185.772 90.6901H164.501C165.643 105.096 169.825 116.163 176.948 124ZM176.232 124.651C168.91 116.595 164.676 105.275 163.53 90.6901C163.505 90.3701 163.482 90.0486 163.459 89.7253H186.683C187.586 106.706 194.683 115.196 207.972 115.196C214.552 115.196 219.712 113.009 223.454 108.635C227.325 104.262 229.26 96.9931 229.26 86.831V0H252.484V86.831C252.484 103.554 248.549 116.096 240.679 124.458C232.809 132.69 221.906 136.807 207.972 136.807C194.296 136.807 183.715 132.755 176.232 124.651ZM357.602 88.7606L311.155 0H278.641V135.07H301.865V28.7507L309.993 46.3099L356.441 135.07H388.955V0H365.731V106.513L357.602 88.7606ZM366.698 0.964789V106.513L364.85 106.913L356.732 89.1845L310.568 0.964789H279.609V134.106H300.897V28.7507L302.744 28.3465L310.862 45.8841L357.027 134.106H387.987V0.964789H366.698ZM123.876 0V135.07H147.1V0H123.876Z" fill="#FFBCBC"/>
</svg>
