<svg width="75" height="86" viewBox="0 0 75 86" fill="none" xmlns="http://www.w3.org/2000/svg">
<path d="M32.703 85.5376C22.8731 85.5376 15.1091 82.5273 9.41203 76.5068C3.71497 70.3752 0.866455 61.1769 0.866455 48.9129V0.414551H20.3035V48.9129C20.3035 55.0449 21.7564 59.6718 24.6601 62.7935C27.5648 65.9149 31.3625 67.4761 36.0542 67.4761C41.7513 67.4761 46.2754 65.8598 49.6266 62.6263C53.0902 59.393 54.9333 55.1007 55.1561 49.7491V0.414551H74.5931V84.0324H59.3451L57.8371 74.8345C54.821 78.2904 51.1908 80.9661 46.9456 82.8618C42.7014 84.6453 37.9535 85.5376 32.703 85.5376Z" fill="#FFBCBC"/>
</svg>
