<svg width="82" height="88" viewBox="0 0 82 88" fill="none" xmlns="http://www.w3.org/2000/svg">
<path d="M40.8598 87.5378C28.2375 87.5378 18.3514 83.9698 11.2015 76.8347C4.16394 69.6996 0.645142 59.7209 0.645142 46.8995V41.548C0.645142 35.193 1.53916 29.507 3.32614 24.4899C5.22549 19.4728 7.90644 15.2362 11.369 11.78C14.944 8.21226 19.1892 5.53649 24.1037 3.75268C29.0191 1.8573 34.6048 0.909668 40.8598 0.909668C53.483 0.909668 63.3129 4.4773 70.3504 11.6128C77.5003 18.7481 81.0743 28.7265 81.0743 41.548V46.8995C81.0743 53.2545 80.1251 58.9405 78.2258 63.9576C76.4388 68.9746 73.7578 73.2667 70.1829 76.8347C66.7203 80.2906 62.475 82.9664 57.4482 84.862C52.5338 86.6455 47.0043 87.5378 40.8598 87.5378ZM40.8598 69.4763C47.2271 69.4763 52.0863 67.6367 55.4375 63.9576C58.9011 60.2784 60.6319 54.5924 60.6319 46.8995V41.548C60.6319 33.9666 58.8449 28.3363 55.27 24.6571C51.8074 20.8664 47.0043 18.9711 40.8598 18.9711C34.4925 18.9711 29.578 20.8107 26.1144 24.4899C22.7632 28.1691 21.0875 33.8551 21.0875 41.548V46.8995C21.0875 54.4809 22.8193 60.1668 26.2819 63.9576C29.8569 67.6367 34.7162 69.4763 40.8598 69.4763Z" fill="#FFBCBC"/>
</svg>
