<svg width="75" height="116" viewBox="0 0 75 116" fill="none" xmlns="http://www.w3.org/2000/svg">
<path d="M32.431 80.2401C27.7325 80.2401 23.4624 79.4931 19.6187 78.0001C15.775 76.4001 12.4117 74.0531 9.52893 70.9601C6.75226 67.8668 4.56415 64.0268 2.96261 59.4401C1.46717 54.7468 0.720459 49.2534 0.720459 42.9601V37.8401C0.720459 31.8668 1.52125 26.5868 3.1228 22.0001C4.72434 17.3068 6.91245 13.4134 9.68912 10.3201C12.5719 7.12006 15.9352 4.72006 19.7789 3.12006C23.6226 1.41336 27.8396 0.560059 32.431 0.560059C43.7479 0.560059 52.2902 4.56006 58.0557 12.5601L59.8174 2.00006H74.3915V82.0001C74.3915 93.0931 71.5087 101.413 65.7431 106.96C59.9776 112.613 51.0089 115.44 38.8372 115.44C33.1777 115.44 28.267 114.853 24.103 113.68C20.0451 112.507 16.6288 110.8 13.8531 108.56C11.0764 106.32 8.94141 103.547 7.44697 100.24C6.05863 97.0401 5.15073 93.3601 4.72432 89.2001H23.3022C24.156 92.9331 25.7045 95.7601 27.9467 97.6801C30.1889 99.6001 33.8184 100.56 38.8372 100.56C44.6028 100.56 48.8729 99.0671 51.6495 96.0801C54.4252 93.2001 55.8136 88.5071 55.8136 82.0001V70.8001C52.9308 73.8931 49.5135 76.2401 45.5637 77.8401C41.6128 79.4401 37.2356 80.2401 32.431 80.2401ZM38.0364 62.9601C43.1614 62.9601 47.3784 61.2001 50.6886 57.6801C54.1049 54.1601 55.8136 49.2534 55.8136 42.9601V37.8401C55.8136 31.5468 54.1049 26.6401 50.6886 23.1201C47.3784 19.6001 43.1614 17.8401 38.0364 17.8401C32.377 17.8401 27.9998 19.4934 24.9038 22.8001C21.8068 26.0001 20.2593 31.0134 20.2593 37.8401V42.9601C20.2593 49.5734 21.8608 54.5868 25.0639 58.0001C28.267 61.3068 32.5912 62.9601 38.0364 62.9601Z" fill="#FFBCBC"/>
</svg>
