<svg width="99" height="121" viewBox="0 0 99 121" fill="none" xmlns="http://www.w3.org/2000/svg">
<path d="M51.175 120.538C43.4672 120.538 36.4296 119.311 30.0623 116.859C23.8064 114.406 18.4445 110.782 13.9765 105.988C9.61992 101.194 6.21252 95.3966 3.7553 88.5957C1.29708 81.6832 0.0689697 73.7674 0.0689697 64.8482V56.1519C0.0689697 47.3441 1.29708 39.5398 3.7553 32.7389C6.21252 25.8265 9.67513 19.9732 14.1441 15.1792C18.612 10.385 23.974 6.76162 30.2299 4.30882C36.5972 1.74455 43.5786 0.462402 51.175 0.462402C57.9888 0.462402 64.1323 1.46582 69.6067 3.47265C75.1914 5.47947 79.9954 8.211 84.0169 11.6672C88.0383 15.0119 91.2772 18.9698 93.7354 23.541C96.304 28.0006 98.0358 32.7946 98.9298 37.9232H76.8118C75.9178 35.3589 74.7449 32.9618 73.293 30.7321C71.8402 28.3908 70.0532 26.384 67.9311 24.7116C65.808 23.0393 63.3507 21.7014 60.5584 20.698C57.765 19.6945 54.6376 19.1928 51.175 19.1928C42.2381 19.1928 34.9768 22.2588 29.3921 28.3908C23.9178 34.5228 21.1816 43.7765 21.1816 56.1519V64.8482C21.1816 70.9801 21.9071 76.3875 23.3599 81.0701C24.9232 85.6412 26.99 89.4876 29.5596 92.6093C32.2406 95.6196 35.4243 97.9051 39.1106 99.466C42.7969 101.027 46.8184 101.807 51.175 101.807C57.9888 101.807 63.5745 99.8005 67.9311 95.7868C72.2876 91.7732 75.2475 86.4216 76.8118 79.7322H98.9298C98.0358 85.6412 96.304 91.1042 93.7354 96.1213C91.2772 101.027 87.9822 105.319 83.8493 108.998C79.8279 112.566 75.08 115.409 69.6067 117.527C64.1323 119.534 57.9888 120.538 51.175 120.538Z" fill="#FFBCBC"/>
</svg>
