<svg width="73" height="84" viewBox="0 0 73 84" fill="none" xmlns="http://www.w3.org/2000/svg">
<path d="M38.1794 83.4401C32.4139 83.4401 27.1818 82.5871 22.4842 80.8801C17.8928 79.0671 13.943 76.5071 10.6328 73.2001C7.42975 69.7868 4.92031 65.6801 3.10556 60.8801C1.39691 56.0801 0.543091 50.6401 0.543091 44.5601V39.4401C0.543091 33.4668 1.39691 28.0801 3.10556 23.2801C4.92031 18.4801 7.48278 14.4268 10.793 11.1201C14.1032 7.70676 18.053 5.09336 22.6444 3.28006C27.342 1.46676 32.521 0.560059 38.1794 0.560059C48.3222 0.560059 56.1697 3.06676 61.7221 8.08006C67.3806 13.0934 71.0111 19.6001 72.6126 27.6001H52.7535C51.8997 24.7201 50.1379 22.3734 47.4684 20.5601C44.7988 18.7468 41.4355 17.8401 37.3786 17.8401C35.0293 17.8401 32.7872 18.2668 30.6522 19.1201C28.6232 19.8668 26.8084 21.1468 25.2069 22.9601C23.6054 24.6668 22.3241 26.9068 21.3632 29.6801C20.5093 32.3468 20.082 35.6001 20.082 39.4401V44.5601C20.082 48.2934 20.5624 51.5468 21.5234 54.3201C22.4843 56.9868 23.7655 59.2268 25.367 61.0401C26.9686 62.7468 28.7833 64.0268 30.8123 64.8801C32.9473 65.7334 35.1364 66.1601 37.3786 66.1601C41.97 66.1601 45.4394 65.1468 47.7887 63.1201C50.244 61.0934 51.8997 58.5868 52.7535 55.6001H72.6126C71.0111 64.0268 67.3806 70.8001 61.7221 75.9201C56.1697 80.9331 48.3222 83.4401 38.1794 83.4401Z" fill="#FFBCBC"/>
</svg>
