<svg width="92" height="102" viewBox="0 0 92 102" fill="none" xmlns="http://www.w3.org/2000/svg">
<path d="M46.1034 101.804C39.0749 101.804 32.7628 100.76 27.1653 98.6719C21.5688 96.4528 16.7533 93.3204 12.7177 89.2748C8.6831 85.0979 5.55929 80.0733 3.34626 74.2001C1.26405 68.3269 0.222473 61.6705 0.222473 54.2311V47.9663C0.222473 40.5269 1.26405 33.8705 3.34626 27.9973C5.55929 22.1241 8.6831 17.1644 12.7177 13.1184C16.7533 8.94186 21.5688 5.80946 27.1653 3.72123C32.7628 1.50242 39.0749 0.393066 46.1034 0.393066C60.2914 0.393066 71.4843 4.7654 79.6843 13.51C87.8843 22.2545 91.9844 34.7841 91.9844 51.0987V58.7339H22.8701C23.5212 66.9564 25.7986 72.8953 29.7034 76.5494C33.6082 80.0733 39.0749 81.8353 46.1034 81.8353C53.0022 81.8353 58.0129 80.6607 61.1367 78.3114C64.3913 75.8319 66.539 72.9599 67.5796 69.6973H91.0082C89.9676 74.2657 88.3403 78.5071 86.1272 82.4226C83.9152 86.3381 80.9866 89.7319 77.3415 92.6029C73.6974 95.474 69.2723 97.7586 64.0653 99.455C58.8593 101.021 52.8723 101.804 46.1034 101.804ZM46.1034 20.3621C39.4653 20.3621 34.2593 21.9936 30.4844 25.2564C26.7104 28.5193 24.3022 33.6748 23.2606 40.7226H68.9462C68.0355 33.4137 65.6272 28.1931 61.7225 25.0607C57.9485 21.9283 52.7415 20.3621 46.1034 20.3621Z" fill="#FFBCBC"/>
</svg>
