<svg width="70" height="84" viewBox="0 0 70 84" fill="none" xmlns="http://www.w3.org/2000/svg">
<path d="M26.9626 83.4401C18.3142 83.4401 11.7478 81.3071 7.26351 77.0401C2.77918 72.7731 0.537048 66.8534 0.537048 59.2801C0.537048 55.1201 1.17765 51.3868 2.45889 48.0801C3.84723 44.6668 5.98231 41.8401 8.86509 39.6001C11.855 37.2534 15.6446 35.4934 20.2361 34.3201C24.9336 33.0401 30.6461 32.4001 37.3726 32.4001H50.8256V27.6001C50.8256 23.7601 49.7575 20.8801 47.6225 18.9601C45.5935 16.9334 42.1772 15.9201 37.3726 15.9201C32.8883 15.9201 29.6321 16.7734 27.6031 18.4801C25.5742 20.1868 24.347 22.4268 23.9196 25.2001H3.74015C4.16756 18.0534 7.0503 12.1868 12.3885 7.60006C17.8337 2.90676 26.1618 0.560059 37.3726 0.560059C48.0499 0.560059 56.0576 3.01336 61.3958 7.92006C66.7339 12.8268 69.4035 19.3868 69.4035 27.6001V82.0001H54.8294L52.9076 70.9601C50.1319 75.0131 46.5014 78.1071 42.0171 80.2401C37.6399 82.3731 32.621 83.4401 26.9626 83.4401ZM30.1656 68.0801C33.1555 68.0801 35.8782 67.6001 38.3335 66.6401C40.896 65.5734 43.0851 64.1868 44.8999 62.4801C46.7146 60.6668 48.156 58.6401 49.2241 56.4001C50.2921 54.1601 50.8256 51.7601 50.8256 49.2001V46.8001H37.3726C30.9664 46.8001 26.4821 47.8668 23.9196 50.0001C21.3571 52.1334 20.0759 55.0134 20.0759 58.6401C20.0759 61.5201 20.9297 63.8134 22.6384 65.5201C24.4531 67.2268 26.9625 68.0801 30.1656 68.0801Z" fill="#FFBCBC"/>
</svg>
