<svg width="100" height="121" viewBox="0 0 100 121" fill="none" xmlns="http://www.w3.org/2000/svg">
<path d="M51.7451 120.538C44.0373 120.538 36.9998 119.311 30.6325 116.859C24.377 114.406 19.015 110.782 14.5467 105.988C10.1901 101.194 6.78305 95.3966 4.3255 88.5957C1.86793 81.6832 0.63916 73.7674 0.63916 64.8482V56.1519C0.63916 47.3441 1.86793 39.5398 4.3255 32.7389C6.78305 25.8265 10.246 19.9732 14.7142 15.1792C19.1826 10.385 24.5445 6.76162 30.8 4.30882C37.1674 1.74455 44.1491 0.462402 51.7451 0.462402C58.5593 0.462402 64.7032 1.46582 70.1768 3.47265C75.7622 5.47947 80.5656 8.211 84.587 11.6672C88.6085 15.0119 91.848 18.9698 94.3055 23.541C96.8748 28.0006 98.6065 32.7946 99.4995 37.9232H77.3819C76.4883 35.3589 75.3154 32.9618 73.8631 30.7321C72.411 28.3908 70.6237 26.384 68.5012 24.7116C66.3788 23.0393 63.9213 21.7014 61.1285 20.698C58.3359 19.6945 55.2081 19.1928 51.7451 19.1928C42.8086 19.1928 35.5476 22.2588 29.9622 28.3908C24.4886 34.5228 21.7518 43.7765 21.7518 56.1519V64.8482C21.7518 70.9801 22.4779 76.3875 23.9301 81.0701C25.494 85.6412 27.5606 89.4876 30.1298 92.6093C32.8108 95.6196 35.9944 97.9051 39.6808 99.466C43.3671 101.027 47.3886 101.807 51.7451 101.807C58.5593 101.807 64.1446 99.8005 68.5012 95.7868C72.8578 91.7732 75.8181 86.4216 77.3819 79.7322H99.4995C98.6065 85.6412 96.8748 91.1042 94.3055 96.1213C91.848 101.027 88.5527 105.319 84.4195 108.998C80.398 112.566 75.6505 115.409 70.1768 117.527C64.7032 119.534 58.5593 120.538 51.7451 120.538Z" fill="#FFBCBC"/>
</svg>
