<svg width="77" height="84" viewBox="0 0 77 84" fill="none" xmlns="http://www.w3.org/2000/svg">
<path d="M38.5575 83.4401C32.7919 83.4401 27.6139 82.5871 23.0225 80.8801C18.432 79.0671 14.4812 76.5071 11.171 73.2001C7.86185 69.7868 5.29939 65.6801 3.48364 60.8801C1.77599 56.0801 0.921173 50.6401 0.921173 44.5601V39.4401C0.921173 33.3601 1.77599 27.9201 3.48364 23.1201C5.29939 18.3201 7.86185 14.2668 11.171 10.9601C14.4812 7.54676 18.432 4.98676 23.0225 3.28006C27.6139 1.46676 32.7919 0.560059 38.5575 0.560059C50.1957 0.560059 59.3775 4.13336 66.104 11.2801C72.8305 18.4268 76.1937 28.6668 76.1937 42.0001V48.2401H19.4991C20.0336 54.9601 21.9014 59.8134 25.1045 62.8001C28.3076 65.6801 32.7919 67.1201 38.5575 67.1201C44.2169 67.1201 48.3269 66.1601 50.8893 64.2401C53.5589 62.2134 55.3206 59.8668 56.1744 57.2001H75.393C74.5391 60.9334 73.2049 64.4001 71.3891 67.6001C69.5744 70.8001 67.172 73.5731 64.1821 75.9201C61.1933 78.2671 57.5628 80.1331 53.2917 81.5201C49.0216 82.8001 44.1098 83.4401 38.5575 83.4401ZM38.5575 16.8801C33.1122 16.8801 28.8421 18.2134 25.7451 20.8801C22.6491 23.5468 20.6742 27.7601 19.8194 33.5201H57.2955C56.5488 27.5468 54.5729 23.2801 51.3698 20.7201C48.2738 18.1601 44.0027 16.8801 38.5575 16.8801Z" fill="#FFBCBC"/>
</svg>
