<svg width="78" height="84" viewBox="0 0 78 84" fill="none" xmlns="http://www.w3.org/2000/svg">
<path d="M38.6869 83.4401C26.6222 83.4401 17.1731 80.0271 10.3396 73.2001C3.61307 66.3734 0.249817 56.8268 0.249817 44.5601V39.4401C0.249817 33.3601 1.10465 27.9201 2.81229 23.1201C4.62804 18.3201 7.19051 14.2668 10.4997 10.9601C13.917 7.54676 17.9739 4.98676 22.6714 3.28006C27.37 1.46676 32.7081 0.560059 38.6869 0.560059C50.7525 0.560059 60.1476 3.97336 66.8741 10.8001C73.7076 17.6268 77.1239 27.1734 77.1239 39.4401V44.5601C77.1239 50.6401 76.2171 56.0801 74.4013 60.8801C72.6937 65.6801 70.1312 69.7868 66.7139 73.2001C63.4047 76.5071 59.3468 79.0671 54.5422 80.8801C49.8446 82.5871 44.5595 83.4401 38.6869 83.4401ZM38.6869 66.1601C44.7727 66.1601 49.4172 64.4001 52.6203 60.8801C55.9305 57.3601 57.5851 51.9201 57.5851 44.5601V39.4401C57.5851 32.1868 55.8774 26.8001 52.4602 23.2801C49.151 19.6534 44.5595 17.8401 38.6869 17.8401C32.601 17.8401 27.9035 19.6001 24.5933 23.1201C21.3902 26.6401 19.7887 32.0801 19.7887 39.4401V44.5601C19.7887 51.8134 21.4443 57.2534 24.7534 60.8801C28.1707 64.4001 32.8152 66.1601 38.6869 66.1601Z" fill="#FFBCBC"/>
</svg>
