<svg width="81" height="88" viewBox="0 0 81 88" fill="none" xmlns="http://www.w3.org/2000/svg">
<path d="M40.767 87.5378C28.1438 87.5378 18.2577 83.9698 11.1088 76.8347C4.07123 69.6996 0.55249 59.7209 0.55249 46.8995V41.548C0.55249 35.193 1.44546 29.507 3.23343 24.4899C5.13179 19.4728 7.8128 15.2362 11.2764 11.78C14.8503 8.21226 19.0955 5.53649 24.011 3.75268C28.9254 1.8573 34.5111 0.909668 40.767 0.909668C53.3893 0.909668 63.2201 4.4773 70.2577 11.6128C77.4066 18.7481 80.9816 28.7265 80.9816 41.548V46.8995C80.9816 53.2545 80.0314 58.9405 78.133 63.9576C76.3451 68.9746 73.6641 73.2667 70.0901 76.8347C66.6266 80.2906 62.3824 82.9664 57.3555 84.862C52.4401 86.6455 46.9106 87.5378 40.767 87.5378ZM40.767 69.4763C47.1343 69.4763 51.9936 67.6367 55.3448 63.9576C58.8074 60.2784 60.5392 54.5924 60.5392 46.8995V41.548C60.5392 33.9666 58.7512 28.3363 55.1772 24.6571C51.7137 20.8664 46.9106 18.9711 40.767 18.9711C34.3997 18.9711 29.4843 20.8107 26.0217 24.4899C22.6705 28.1691 20.9949 33.8551 20.9949 41.548V46.8995C20.9949 54.4809 22.7257 60.1668 26.1893 63.9576C29.7632 67.6367 34.6225 69.4763 40.767 69.4763Z" fill="#FFBCBC"/>
</svg>
