<svg width="76" height="84" viewBox="0 0 76 84" fill="none" xmlns="http://www.w3.org/2000/svg">
<path d="M37.8663 83.4401C32.1007 83.4401 26.9228 82.5871 22.3314 80.8801C17.7409 79.0671 13.7901 76.5071 10.4799 73.2001C7.17072 69.7868 4.60826 65.6801 2.79251 60.8801C1.08486 56.0801 0.230042 50.6401 0.230042 44.5601V39.4401C0.230042 33.3601 1.08486 27.9201 2.79251 23.1201C4.60826 18.3201 7.17072 14.2668 10.4799 10.9601C13.7901 7.54676 17.7409 4.98676 22.3314 3.28006C26.9228 1.46676 32.1007 0.560059 37.8663 0.560059C49.5045 0.560059 58.6864 4.13336 65.4129 11.2801C72.1394 18.4268 75.5026 28.6668 75.5026 42.0001V48.2401H18.8079C19.3425 54.9601 21.2102 59.8134 24.4133 62.8001C27.6164 65.6801 32.1007 67.1201 37.8663 67.1201C43.5258 67.1201 47.6357 66.1601 50.1982 64.2401C52.8678 62.2134 54.6295 59.8668 55.4833 57.2001H74.7019C73.848 60.9334 72.5138 64.4001 70.698 67.6001C68.8833 70.8001 66.4809 73.5731 63.491 75.9201C60.5022 78.2671 56.8717 80.1331 52.6005 81.5201C48.3304 82.8001 43.4187 83.4401 37.8663 83.4401ZM37.8663 16.8801C32.4211 16.8801 28.1509 18.2134 25.054 20.8801C21.958 23.5468 19.9831 27.7601 19.1283 33.5201H56.6044C55.8577 27.5468 53.8818 23.2801 50.6787 20.7201C47.5827 18.1601 43.3116 16.8801 37.8663 16.8801Z" fill="#FFBCBC"/>
</svg>
