<svg width="73" height="88" viewBox="0 0 73 88" fill="none" xmlns="http://www.w3.org/2000/svg">
<path d="M28.1493 87.5378C19.1011 87.5378 12.2311 85.3077 7.53936 80.8484C2.84766 76.3891 0.501831 70.2014 0.501831 62.2852C0.501831 57.9371 1.17208 54.0349 2.51257 50.5787C3.96542 47.011 6.19889 44.0565 9.21498 41.7152C12.3434 39.2624 16.3087 37.4227 21.1118 36.1964C26.0272 34.8585 32.0032 34.1896 39.0408 34.1896H53.1159V29.1725C53.1159 25.1589 51.9991 22.1486 49.7647 20.1418C47.6426 18.0234 44.0676 16.9643 39.0408 16.9643C34.3491 16.9643 30.9427 17.8562 28.8196 19.6401C26.6975 21.4239 25.4132 23.7652 24.9657 26.664H3.85304C4.30052 19.194 7.31661 13.0621 12.9013 8.26804C18.5984 3.36243 27.3115 0.909668 39.0408 0.909668C50.2122 0.909668 58.5902 3.47388 64.1749 8.60251C69.7606 13.731 72.5529 20.5877 72.5529 29.1725V86.0327H57.3049L55.2942 74.4934C52.3904 78.7304 48.5917 81.9629 43.9 84.1931C39.3207 86.4232 34.0701 87.5378 28.1493 87.5378ZM31.5005 71.4832C34.629 71.4832 37.4775 70.9815 40.0461 69.978C42.7271 68.8635 45.0178 67.4134 46.9161 65.6299C48.8155 63.7345 50.3235 61.6163 51.4403 59.275C52.558 56.9337 53.1159 54.4251 53.1159 51.7493V49.2408H39.0408C32.3384 49.2408 27.6467 50.3557 24.9657 52.5855C22.2847 54.8154 20.9442 57.8255 20.9442 61.6163C20.9442 64.6265 21.8382 67.0239 23.6252 68.8074C25.5245 70.5909 28.1493 71.4832 31.5005 71.4832Z" fill="#FFBCBC"/>
</svg>
