<svg width="73" height="88" viewBox="0 0 73 88" fill="none" xmlns="http://www.w3.org/2000/svg">
<path d="M28.0257 87.5378C18.9774 87.5378 12.1074 85.3077 7.41572 80.8484C2.72402 76.3891 0.378174 70.2014 0.378174 62.2852C0.378174 57.9371 1.04842 54.0349 2.3889 50.5787C3.84077 47.011 6.07523 44.0565 9.09133 41.7152C12.2188 39.2624 16.1851 37.4227 20.9881 36.1964C25.9036 34.8585 31.8796 34.1896 38.9171 34.1896H52.9922V29.1725C52.9922 25.1589 51.8755 22.1486 49.641 20.1418C47.5189 18.0234 43.944 16.9643 38.9171 16.9643C34.2254 16.9643 30.818 17.8562 28.6959 19.6401C26.5738 21.4239 25.2885 23.7652 24.842 26.664H3.72939C4.17589 19.194 7.19198 13.0621 12.7777 8.26804C18.4747 3.36243 27.1879 0.909668 38.9171 0.909668C50.0875 0.909668 58.4656 3.47388 64.0512 8.60251C69.6369 13.731 72.4293 20.5877 72.4293 29.1725V86.0327H57.1813L55.1705 74.4934C52.2658 78.7304 48.4681 81.9629 43.7764 84.1931C39.1971 86.4232 33.9465 87.5378 28.0257 87.5378ZM31.3769 71.4832C34.5054 71.4832 37.3529 70.9815 39.9225 69.978C42.6035 68.8635 44.8931 67.4134 46.7925 65.6299C48.6918 63.7345 50.1999 61.6163 51.3166 59.275C52.4334 56.9337 52.9922 54.4251 52.9922 51.7493V49.2408H38.9171C32.2147 49.2408 27.523 50.3557 24.842 52.5855C22.1611 54.8154 20.8206 57.8255 20.8206 61.6163C20.8206 64.6265 21.7146 67.0239 23.5016 68.8074C25.4009 70.5909 28.0257 71.4832 31.3769 71.4832Z" fill="#FFBCBC"/>
</svg>
