<svg width="93" height="102" viewBox="0 0 93 102" fill="none" xmlns="http://www.w3.org/2000/svg">
<path d="M46.2395 101.804C39.2109 101.804 32.8979 100.76 27.3014 98.6719C21.7039 96.4528 16.8883 93.3204 12.8537 89.2748C8.81816 85.0979 5.69436 80.0733 3.48231 74.2001C1.39912 68.3269 0.358505 61.6705 0.358505 54.2311V47.9663C0.358505 40.5269 1.39912 33.8705 3.48231 27.9973C5.69436 22.1241 8.81816 17.1644 12.8537 13.1184C16.8883 8.94186 21.7039 5.80946 27.3014 3.72123C32.8979 1.50242 39.2109 0.393066 46.2395 0.393066C60.4264 0.393066 71.6204 4.7654 79.8204 13.51C88.0204 22.2545 92.1204 34.7841 92.1204 51.0987V58.7339H23.0061C23.6563 66.9564 25.9347 72.8953 29.8395 76.5494C33.7442 80.0733 39.2109 81.8353 46.2395 81.8353C53.1372 81.8353 58.149 80.6607 61.2728 78.3114C64.5265 75.8319 66.6741 72.9599 67.7157 69.6973H91.1442C90.1026 74.2657 88.4753 78.5071 86.2633 82.4226C84.0503 86.3381 81.1217 89.7319 77.4776 92.6029C73.8325 95.474 69.4074 97.7586 64.2014 99.455C58.9944 101.021 53.0074 101.804 46.2395 101.804ZM46.2395 20.3621C39.6014 20.3621 34.3944 21.9936 30.6204 25.2564C26.8455 28.5193 24.4372 33.6748 23.3966 40.7226H69.0823C68.1706 33.4137 65.7633 28.1931 61.8585 25.0607C58.0836 21.9283 52.8776 20.3621 46.2395 20.3621Z" fill="#FFBCBC"/>
</svg>
