<svg width="74" height="114" viewBox="0 0 74 114" fill="none" xmlns="http://www.w3.org/2000/svg">
<path d="M32.0143 113.44C27.3168 113.44 23.0457 112.64 19.202 111.04C15.3582 109.44 11.995 107.04 9.11222 103.84C6.33655 100.533 4.14744 96.48 2.54589 91.68C1.05145 86.7733 0.303726 81.0667 0.303726 74.56V69.44C0.303726 63.04 1.10449 57.44 2.70604 52.64C4.30758 47.84 6.4967 43.7867 9.27238 40.48C12.1552 37.1733 15.5184 34.72 19.3621 33.12C23.2058 31.4133 27.4239 30.56 32.0143 30.56C41.9439 30.56 49.7384 33.7067 55.3969 40V0H73.9748V112H59.4007L57.639 101.28C54.8633 105.333 51.2869 108.373 46.9087 110.4C42.5314 112.427 37.5667 113.44 32.0143 113.44ZM37.6197 96.16C42.6385 96.16 46.8026 94.4533 50.1118 91.04C53.422 87.52 55.1837 82.4 55.3969 75.68V69.44C55.3969 62.4 53.6892 57.0667 50.2719 53.44C46.9627 49.7067 42.7446 47.84 37.6197 47.84C31.9612 47.84 27.584 49.5467 24.487 52.96C21.3911 56.2667 19.8426 61.76 19.8426 69.44V74.56C19.8426 81.92 21.4441 87.36 24.6472 90.88C27.8503 94.4 32.1745 96.16 37.6197 96.16Z" fill="#FFBCBC"/>
</svg>
